<svg width="83" height="70" viewBox="0 0 83 70" fill="none" xmlns="http://www.w3.org/2000/svg">
<rect width="83" height="70" rx="5" fill="#333333"/>
<line x1="15.7414" y1="16.1429" x2="64.3966" y2="16.1429" stroke="white" stroke-width="2"/>
<line x1="15.7414" y1="26.1429" x2="64.3966" y2="26.1429" stroke="white" stroke-width="2"/>
<line x1="15.7414" y1="36.1429" x2="64.3966" y2="36.1429" stroke="white" stroke-width="2"/>
<path d="M14.3773 55.4286C14.256 55.4286 14.1953 55.3679 14.1953 55.2466V45.8106C14.1953 45.6892 14.256 45.6286 14.3773 45.6286H15.0353C15.1193 45.6286 15.1893 45.6706 15.2453 45.7546L17.8073 49.8006C17.8353 49.8566 17.8633 49.8566 17.8913 49.8006L20.4673 45.7546C20.5233 45.6706 20.5933 45.6286 20.6773 45.6286H21.3353C21.4567 45.6286 21.5173 45.6892 21.5173 45.8106V55.2466C21.5173 55.3679 21.4567 55.4286 21.3353 55.4286H20.7053C20.584 55.4286 20.5233 55.3679 20.5233 55.2466V47.5186C20.5233 47.4812 20.514 47.4626 20.4953 47.4626C20.4767 47.4626 20.458 47.4766 20.4393 47.5046L18.2273 51.0046C18.1713 51.0886 18.1013 51.1306 18.0173 51.1306H17.6953C17.6113 51.1306 17.5413 51.0886 17.4853 51.0046L15.2733 47.5046C15.2547 47.4766 15.236 47.4626 15.2173 47.4626C15.1987 47.4626 15.1893 47.4812 15.1893 47.5186V55.2466C15.1893 55.3679 15.1287 55.4286 15.0073 55.4286H14.3773ZM30.2991 46.3146C30.2991 46.4359 30.2384 46.4966 30.1171 46.4966H25.0211C24.9744 46.4966 24.9511 46.5199 24.9511 46.5666V49.9966C24.9511 50.0432 24.9744 50.0666 25.0211 50.0666H28.5771C28.6984 50.0666 28.7591 50.1272 28.7591 50.2486V50.7526C28.7591 50.8739 28.6984 50.9346 28.5771 50.9346H25.0211C24.9744 50.9346 24.9511 50.9579 24.9511 51.0046V54.4906C24.9511 54.5372 24.9744 54.5606 25.0211 54.5606H30.1171C30.2384 54.5606 30.2991 54.6212 30.2991 54.7426V55.2466C30.2991 55.3679 30.2384 55.4286 30.1171 55.4286H24.1391C24.0177 55.4286 23.9571 55.3679 23.9571 55.2466V45.8106C23.9571 45.6892 24.0177 45.6286 24.1391 45.6286H30.1171C30.2384 45.6286 30.2991 45.6892 30.2991 45.8106V46.3146ZM32.6156 55.4286C32.4943 55.4286 32.4336 55.3679 32.4336 55.2466V45.8106C32.4336 45.6892 32.4943 45.6286 32.6156 45.6286H33.2456C33.3296 45.6286 33.3996 45.6706 33.4556 45.7546L38.1596 53.3706C38.1783 53.3986 38.1969 53.4126 38.2156 53.4126C38.2343 53.4032 38.2436 53.3799 38.2436 53.3426V45.8106C38.2436 45.6892 38.3043 45.6286 38.4256 45.6286H39.0556C39.1769 45.6286 39.2376 45.6892 39.2376 45.8106V55.2466C39.2376 55.3679 39.1769 55.4286 39.0556 55.4286H38.4256C38.3416 55.4286 38.2716 55.3866 38.2156 55.3026L33.4976 47.6586C33.4789 47.6306 33.4603 47.6212 33.4416 47.6306C33.4229 47.6306 33.4136 47.6492 33.4136 47.6866L33.4276 55.2466C33.4276 55.3679 33.3669 55.4286 33.2456 55.4286H32.6156ZM45.0735 55.5406C44.4202 55.5406 43.8415 55.4099 43.3375 55.1486C42.8335 54.8872 42.4415 54.5232 42.1615 54.0566C41.8815 53.5806 41.7415 53.0299 41.7415 52.4046V45.8106C41.7415 45.6892 41.8022 45.6286 41.9235 45.6286H42.5535C42.6749 45.6286 42.7355 45.6892 42.7355 45.8106V52.4326C42.7355 53.0952 42.9502 53.6366 43.3795 54.0566C43.8089 54.4672 44.3735 54.6726 45.0735 54.6726C45.7735 54.6726 46.3382 54.4672 46.7675 54.0566C47.1969 53.6366 47.4115 53.0952 47.4115 52.4326V45.8106C47.4115 45.6892 47.4722 45.6286 47.5935 45.6286H48.2235C48.3449 45.6286 48.4055 45.6892 48.4055 45.8106V52.4046C48.4055 53.0299 48.2655 53.5806 47.9855 54.0566C47.7149 54.5232 47.3275 54.8872 46.8235 55.1486C46.3195 55.4099 45.7362 55.5406 45.0735 55.5406Z" fill="white"/>
</svg>
